HIERARCHY
ROOT Hips
{
	OFFSET 0.000000 0.000000 0.000000
	CHANNELS 6 Xposition Yposition Zposition Xrotation Yrotation Zrotation
	JOINT LeftUpLeg_virtual
	{
		OFFSET 0.000000 0.000000 0.000000
		CHANNELS 3 Xrotation Yrotation Zrotation
		JOINT LeftUpLeg
		{
			OFFSET 10.205400 -3.823500 0.155100
			CHANNELS 3 Xrotation Yrotation Zrotation
			JOINT LeftLeg
			{
				OFFSET 0.708757 -12.982077 0.567790
				CHANNELS 3 Xrotation Yrotation Zrotation
				JOINT LeftFoot
				{
					OFFSET -0.708756 -10.717838 -2.184338
					CHANNELS 3 Xrotation Yrotation Zrotation
					JOINT LeftToeBase
					{
						OFFSET 0.108149 -7.191104 7.560241
						CHANNELS 3 Xrotation Yrotation Zrotation
						JOINT LeftToe_End
						{
							OFFSET 0.070230 0.081724 4.490308
							CHANNELS 3 Xrotation Yrotation Zrotation
							End Site
							{
								OFFSET 0 0 0
							}
						}
					}
				}
			}
		}
	}
	JOINT RightUpLeg_virtual
	{
		OFFSET 0.000000 0.000000 0.000000
		CHANNELS 3 Xrotation Yrotation Zrotation
		JOINT RightUpLeg
		{
			OFFSET -10.205400 -3.823500 0.005500
			CHANNELS 3 Xrotation Yrotation Zrotation
			JOINT RightLeg
			{
				OFFSET -0.708756 -12.982134 0.610632
				CHANNELS 3 Xrotation Yrotation Zrotation
				JOINT RightFoot
				{
					OFFSET 0.708754 -10.717769 -1.945823
					CHANNELS 3 Xrotation Yrotation Zrotation
					JOINT RightToeBase
					{
						OFFSET -0.108140 -7.191069 7.372968
						CHANNELS 3 Xrotation Yrotation Zrotation
						JOINT RightToe_End
						{
							OFFSET -0.070227 0.081735 4.479403
							CHANNELS 3 Xrotation Yrotation Zrotation
							End Site
							{
								OFFSET 0 0 0
							}
						}
					}
				}
			}
		}
	}
	JOINT Spine_virtual
	{
		OFFSET 0.000000 0.000000 0.000000
		CHANNELS 3 Xrotation Yrotation Zrotation
		JOINT Spine
		{
			OFFSET 0.000000 6.876099 0.125700
			CHANNELS 3 Xrotation Yrotation Zrotation
			JOINT Spine1
			{
				OFFSET 0.000000 5.730043 0.104720
				CHANNELS 3 Xrotation Yrotation Zrotation
				JOINT Spine1_split
				{
					OFFSET 0.000000 5.730043 0.104720
					CHANNELS 3 Xrotation Yrotation Zrotation
					JOINT Spine2
					{
						OFFSET 0.000000 5.730043 0.104720
						CHANNELS 3 Xrotation Yrotation Zrotation
						JOINT Neck_virtual
						{
							OFFSET 0.000000 0.000000 0.000000
							CHANNELS 3 Xrotation Yrotation Zrotation
							JOINT Neck
							{
								OFFSET 0.000000 10.314075 0.188496
								CHANNELS 3 Xrotation Yrotation Zrotation
								JOINT Head
								{
									OFFSET 0.000000 7.643700 -2.377400
									CHANNELS 3 Xrotation Yrotation Zrotation
									JOINT HeadTop_End
									{
										OFFSET 0.000000 43.788605 -13.619600
										CHANNELS 3 Xrotation Yrotation Zrotation
										End Site
										{
											OFFSET 0 0 0
										}
									}
								}
							}
						}
						JOINT LeftShoulder_virtual
						{
							OFFSET 0.000000 0.000000 0.000000
							CHANNELS 3 Xrotation Yrotation Zrotation
							JOINT LeftShoulder
							{
								OFFSET 2.196100 4.412489 0.087492
								CHANNELS 3 Xrotation Yrotation Zrotation
								JOINT LeftShoulder_split
								{
									OFFSET 2.196100 4.412489 0.087492
									CHANNELS 3 Xrotation Yrotation Zrotation
									JOINT LeftArm
									{
										OFFSET 8.771219 -2.981674 -0.026999
										CHANNELS 3 Xrotation Yrotation Zrotation
										JOINT LeftForeArm
										{
											OFFSET 8.512804 0.000000 -0.000000
											CHANNELS 3 Xrotation Yrotation Zrotation
											JOINT LeftHand
											{
												OFFSET 18.484802 0.000000 -0.000000
												CHANNELS 3 Xrotation Yrotation Zrotation
												End Site
												{
													OFFSET 0 0 0
												}
											}
										}
									}
								}
							}
						}
						JOINT RightShoulder_virtual
						{
							OFFSET 0.000000 0.000000 0.000000
							CHANNELS 3 Xrotation Yrotation Zrotation
							JOINT RightShoulder
							{
								OFFSET -2.196100 4.412496 0.070690
								CHANNELS 3 Xrotation Yrotation Zrotation
								JOINT RightShoulder_split
								{
									OFFSET -2.196100 4.412496 0.070690
									CHANNELS 3 Xrotation Yrotation Zrotation
									JOINT RightArm
									{
										OFFSET -8.771282 -2.981682 -0.094208
										CHANNELS 3 Xrotation Yrotation Zrotation
										JOINT RightForeArm
										{
											OFFSET -8.494598 0.000000 0.000000
											CHANNELS 3 Xrotation Yrotation Zrotation
											JOINT RightHand
											{
												OFFSET -18.483803 0.000000 0.000001
												CHANNELS 3 Xrotation Yrotation Zrotation
												End Site
												{
													OFFSET 0 0 0
												}
											}
										}
									}
								}
							}
						}
					}
				}
			}
		}
	}
}
MOTION
Frames: 6
Frame Time: 0.03333333
-41.648788 27.575541 -1.934549 0.000000 0.000000 0.000000 21.578294 -57.992821 20.219469 -59.991710 -3.509946 11.788002 36.354645 -21.359468 4.633182 16.607824 11.459329 -38.824807 2.417627 -1.261945 -7.792317 0.000000 0.000000 0.000000 21.902989 -58.456235 20.782112 -37.523044 1.559918 -16.183797 80.022906 19.280301 -5.013471 -25.735886 -12.002794 26.540536 -14.551400 14.854309 -18.595038 0.000000 0.000000 0.000000 21.475170 -45.363190 15.924948 15.893650 9.776926 -9.472606 17.058568 -1.094438 -3.144656 0.401116 -0.179891 0.206387 0.000000 0.000000 0.000000 17.863511 1.256031 -3.920443 -16.690081 14.683814 2.351041 -46.362795 4.764474 6.489027 0.000000 0.000000 0.000000 18.305440 -1.521495 -4.748707 2.469102 -0.532334 14.626589 0.592226 -3.931377 -1.682047 -35.032030 16.549907 -20.284569 15.513626 -69.944962 8.687815 0.000000 0.000000 0.000000 19.536563 0.111570 -3.018271 -5.186660 11.159548 8.464840 6.346003 -0.526873 1.857669 -42.158929 0.171936 48.241537 1.710500 67.296426 -5.806730 0.000000 0.000000 0.000000 
-42.867729 27.500534 -1.770483 0.000000 0.000000 0.000000 19.680697 -59.042457 18.138612 -55.457076 -6.090324 13.429496 37.027644 -22.554447 3.215805 14.991548 11.538823 -37.557206 -3.401688 -0.786315 -5.588962 0.000000 0.000000 0.000000 20.783294 -60.986602 19.808664 -41.826644 2.704291 -19.147694 77.653903 17.633289 -4.041257 -21.326549 -13.856220 26.523551 -14.141220 13.642861 -18.770256 0.000000 0.000000 0.000000 22.719231 -47.685167 16.111412 14.882374 9.825260 -8.842280 16.590763 -1.685422 -3.840653 0.345079 -0.294680 0.090162 0.000000 0.000000 0.000000 18.624855 0.552182 -4.649244 -16.999345 17.587974 -1.789654 -50.530446 6.740598 5.407078 0.000000 0.000000 0.000000 18.437245 -2.132177 -5.190029 2.057703 -1.849678 12.890566 -0.862825 -3.196604 -3.575668 -39.481905 15.858495 -17.200940 12.460820 -70.475272 5.981050 0.000000 0.000000 0.000000 19.353512 -0.814608 -3.726360 -5.420608 10.390966 7.933570 5.127422 -0.287192 2.395556 -37.150878 -1.890959 48.977483 4.567380 71.335937 -8.512440 0.000000 0.000000 0.000000 
-44.006317 27.638090 -1.556160 0.000000 0.000000 0.000000 18.641649 -59.736493 16.932304 -51.270583 -7.655863 15.141703 36.581923 -22.541537 1.468513 14.205574 12.581600 -34.545451 -5.477400 -0.434179 -5.406001 0.000000 0.000000 0.000000 20.157929 -62.385555 19.177464 -42.998466 3.797196 -21.444759 71.625755 15.780739 -3.332087 -19.343226 -16.600804 26.739991 -10.502962 13.378685 -19.856366 0.000000 0.000000 0.000000 23.093406 -49.175743 16.318370 13.674868 9.623772 -8.313325 16.136208 -2.120531 -4.490501 0.202062 -0.525434 0.021813 0.000000 0.000000 0.000000 19.409811 0.098237 -5.288497 -16.818955 20.024101 -5.125736 -53.577267 8.929882 5.099809 0.000000 0.000000 0.000000 18.437541 -2.480815 -5.558983 1.518770 -3.253665 10.170485 -1.592038 -2.672497 -5.087889 -42.350431 14.246391 -16.779567 12.591753 -71.482342 6.278187 0.000000 0.000000 0.000000 19.246867 -1.515227 -4.335783 -5.584959 9.288555 6.992220 4.429579 0.651147 3.262918 -34.009114 -4.513362 48.975472 7.726440 76.433771 -11.241143 0.000000 0.000000 0.000000 
-45.125305 27.738279 -1.340015 0.000000 0.000000 0.000000 18.065244 -60.151605 16.254860 -48.504325 -8.413453 16.615719 37.190838 -21.663033 -0.198507 13.294510 14.828634 -30.158693 -2.229045 -0.065296 -8.027409 0.000000 0.000000 0.000000 19.148980 -63.023132 18.227570 -42.559295 5.071731 -23.149646 64.554304 14.539239 -3.503235 -18.965137 -19.047108 28.641562 -1.802265 13.504665 -21.968726 0.000000 0.000000 0.000000 22.401444 -50.087317 16.146827 12.234302 9.333772 -7.899046 15.804055 -2.380856 -5.040204 0.099271 -0.800542 -0.020639 0.000000 0.000000 0.000000 20.045307 -0.136134 -5.754120 -16.048031 21.904128 -7.687232 -54.666536 11.295438 5.603693 0.000000 0.000000 0.000000 18.292737 -2.613127 -5.867567 0.885681 -4.713475 6.682928 -1.961330 -2.256880 -5.268895 -42.581032 12.436848 -18.165163 15.186178 -71.784400 8.820344 0.000000 0.000000 0.000000 19.204412 -1.952195 -4.804269 -5.680704 8.213066 5.984425 4.111670 1.888950 4.073081 -33.101945 -7.295050 48.177641 12.025867 81.772992 -14.908351 0.000000 0.000000 0.000000 
-46.223305 27.655111 -1.156105 0.000000 0.000000 0.000000 17.860436 -60.491140 16.019317 -47.396807 -8.145625 17.879304 39.048803 -19.739988 -1.602666 10.085494 18.049697 -23.653080 2.495384 0.041270 -11.446869 0.000000 0.000000 0.000000 18.141669 -62.920078 17.248176 -41.092027 6.369449 -24.272867 58.955010 14.478099 -4.350909 -19.512877 -20.428210 33.151351 5.824635 14.303701 -24.460340 0.000000 0.000000 0.000000 20.750938 -50.645436 15.342258 10.616641 9.125781 -7.475191 15.633082 -2.538350 -5.453477 0.053790 -1.068367 -0.007539 0.000000 0.000000 0.000000 20.294959 -0.238242 -6.036809 -14.768308 23.243450 -9.563909 -53.733894 14.024362 6.907590 0.000000 0.000000 0.000000 18.052902 -2.677082 -6.137143 0.231702 -6.227667 2.944820 -2.270068 -1.674542 -4.561362 -40.345644 10.601647 -20.624965 17.905020 -69.995048 11.478273 0.000000 0.000000 0.000000 19.168936 -2.183475 -5.115173 -5.732379 7.320958 5.084088 4.012481 2.864644 4.681958 -34.351607 -10.037728 46.629203 20.105504 86.490720 -22.285333 0.000000 0.000000 0.000000 
-47.246506 27.386221 -1.144182 0.000000 0.000000 0.000000 17.459674 -60.929030 15.730315 -47.711887 -7.538289 19.022924 42.112139 -18.191461 -2.355342 5.830027 19.969412 -17.104231 4.852413 0.002287 -13.973689 0.000000 0.000000 0.000000 17.488179 -62.278771 16.367543 -38.478496 7.261626 -24.761727 55.985213 15.737852 -5.605750 -21.122483 -20.534233 39.195000 8.218571 16.120384 -26.901226 0.000000 0.000000 0.000000 18.791824 -51.329360 14.219897 8.997620 9.074851 -6.858217 15.586241 -2.655557 -5.777947 0.145373 -1.225549 0.058252 0.000000 0.000000 0.000000 20.168799 -0.317393 -6.178008 -13.171425 24.141684 -10.955964 -51.516463 17.165719 8.660573 0.000000 0.000000 0.000000 17.733582 -2.776338 -6.403456 -0.377115 -7.545619 -0.605646 -2.443518 -1.306320 -3.291056 -36.571882 8.869996 -23.573298 19.014714 -65.840592 12.638212 0.000000 0.000000 0.000000 19.085731 -2.292489 -5.297433 -5.776247 6.748954 4.313053 4.070452 3.567496 5.037231 -37.194943 -12.633115 44.371760 141.906360 89.281815 -143.468342 0.000000 0.000000 0.000000 
